<svg xmlns="http://www.w3.org/2000/svg" viewBox="0 0 100 100">
  <defs>
    <linearGradient id="grad" x1="0%" y1="0%" x2="100%" y2="100%">
      <stop offset="0%" style="stop-color:#22d3ee;stop-opacity:1" />
      <stop offset="100%" style="stop-color:#14b8a6;stop-opacity:1" />
    </linearGradient>
  </defs>
  <rect width="100" height="100" fill="url(#grad)" rx="12"/>
  <!-- QR Code pattern -->
  <g fill="#000000" opacity="0.9">
    <!-- Top-left corner pattern -->
    <rect x="12" y="12" width="20" height="20"/>
    <rect x="16" y="16" width="12" height="12" fill="url(#grad)"/>
    <rect x="20" y="20" width="4" height="4" fill="#000"/>
    
    <!-- Top-right corner pattern -->
    <rect x="68" y="12" width="20" height="20"/>
    <rect x="72" y="16" width="12" height="12" fill="url(#grad)"/>
    <rect x="76" y="20" width="4" height="4" fill="#000"/>
    
    <!-- Bottom-left corner pattern -->
    <rect x="12" y="68" width="20" height="20"/>
    <rect x="16" y="72" width="12" height="12" fill="url(#grad)"/>
    <rect x="20" y="76" width="4" height="4" fill="#000"/>
    
    <!-- Data modules -->
    <rect x="40" y="12" width="4" height="4"/>
    <rect x="48" y="12" width="4" height="4"/>
    <rect x="56" y="12" width="4" height="4"/>
    
    <rect x="12" y="40" width="4" height="4"/>
    <rect x="12" y="48" width="4" height="4"/>
    <rect x="12" y="56" width="4" height="4"/>
    
    <rect x="40" y="40" width="4" height="4"/>
    <rect x="48" y="40" width="4" height="4"/>
    <rect x="56" y="40" width="4" height="4"/>
    <rect x="64" y="40" width="4" height="4"/>
    
    <rect x="40" y="48" width="4" height="4"/>
    <rect x="56" y="48" width="4" height="4"/>
    <rect x="64" y="48" width="4" height="4"/>
    
    <rect x="40" y="56" width="4" height="4"/>
    <rect x="48" y="56" width="4" height="4"/>
    <rect x="56" y="56" width="4" height="4"/>
    
    <rect x="72" y="40" width="4" height="4"/>
    <rect x="80" y="40" width="4" height="4"/>
    <rect x="84" y="40" width="4" height="4"/>
    
    <rect x="72" y="48" width="4" height="4"/>
    <rect x="84" y="48" width="4" height="4"/>
    
    <rect x="40" y="64" width="4" height="4"/>
    <rect x="48" y="64" width="4" height="4"/>
    <rect x="56" y="64" width="4" height="4"/>
    <rect x="64" y="64" width="4" height="4"/>
    
    <rect x="72" y="64" width="4" height="4"/>
    <rect x="80" y="64" width="4" height="4"/>
    <rect x="84" y="64" width="4" height="4"/>
    
    <rect x="40" y="72" width="4" height="4"/>
    <rect x="48" y="72" width="4" height="4"/>
    <rect x="56" y="72" width="4" height="4"/>
    
    <rect x="68" y="84" width="4" height="4"/>
    <rect x="72" y="84" width="4" height="4"/>
    <rect x="80" y="84" width="4" height="4"/>
    <rect x="84" y="84" width="4" height="4"/>
  </g>
</svg>

